<svg width="209" height="34" viewBox="0 0 209 34" fill="none" xmlns="http://www.w3.org/2000/svg">
<path fill-rule="evenodd" clip-rule="evenodd" d="M154.039 12.6679L164.197 12.6448C164.384 12.6444 164.536 12.7927 164.539 12.9775L164.543 13.2803C164.554 13.9662 164.497 14.2015 164.357 14.7791L164.357 14.7793L164.357 14.7795L164.357 14.782C164.341 14.8483 164.324 14.919 164.305 14.9955C163.805 17.0981 162.817 18.4623 161.615 19.9549C159.634 22.413 159.691 25.7817 159.692 25.8154C159.688 25.926 159.685 26.1198 159.684 26.29C159.682 26.476 159.529 26.626 159.341 26.626H146.53C146.348 26.626 146.198 26.4865 146.188 26.307C146.149 25.6399 146.036 24.0885 145.786 23.2402C145.614 22.6566 145.409 22.0892 145.174 21.5412C144.862 20.8154 144.411 20.0846 143.796 19.3085C139.345 13.6917 142.053 7.80204 142.376 7.14913C142.677 6.48203 145.581 0.516622 152.917 0.500005C160.635 0.482578 163.454 6.88691 163.57 7.15966C163.57 7.15966 163.718 7.47376 163.855 7.77651C163.898 7.87175 163.941 7.97064 163.978 8.0598C164.051 8.23246 163.968 8.43023 163.794 8.50197L162.339 9.1022C162.293 9.12165 162.126 9.18771 161.97 9.24932C161.8 9.31619 161.607 9.23919 161.532 9.07464L161.124 8.18504C161.036 7.97996 158.859 3.11653 152.923 3.12991C147.128 3.14287 144.885 8.03265 144.792 8.24097L144.766 8.29568C144.663 8.50197 142.359 13.2353 145.885 17.6858C146.646 18.6451 147.212 19.5695 147.617 20.5114C148.09 21.6109 148.456 22.7802 148.708 23.9912L157.171 23.9721C157.328 22.644 157.849 20.4283 159.534 18.3212C160.531 17.0742 161.241 16.1124 161.636 14.7178L154.068 14.7345L154.086 22.2509C154.086 22.4377 153.933 22.5885 153.745 22.5889L152.34 22.5934C152.151 22.5938 151.998 22.4426 151.998 22.2562L151.98 14.7567L151.883 14.757C150.813 14.7603 147.89 14.7696 147.89 11.8508C147.89 9.77335 149.418 8.872 150.891 8.872C153.603 8.872 154.039 10.802 154.039 12.6679ZM150.839 10.8684C150.258 10.9004 149.955 11.3201 149.955 11.7674C149.955 12.6462 150.986 12.6421 151.655 12.6395C151.753 12.6391 151.843 12.6387 151.921 12.6412C151.919 12.5578 151.919 12.4714 151.919 12.3835C151.919 11.932 151.919 11.4444 151.626 11.157C151.327 10.8651 150.946 10.8659 150.894 10.866L150.889 10.866L150.853 10.8692L150.839 10.8684ZM11.9446 5.44368C4.94255 5.44368 0 10.3383 0 17C0 23.6617 4.94255 28.5563 11.9455 28.5559C18.5354 28.5559 23.3064 24.2056 23.8557 18.1555V16.0796C23.8557 15.8932 23.703 15.742 23.5148 15.742H10.9128C10.7245 15.742 10.5719 15.8932 10.5719 16.0796V19.8232C10.5719 20.0097 10.7245 20.1608 10.9128 20.1608H17.7798C16.7501 22.336 14.7593 23.4578 11.9446 23.4578C8.13458 23.4578 5.62892 20.7388 5.62892 17C5.62892 13.2612 8.13458 10.5422 11.9446 10.5422C14.2407 10.5422 16.0526 11.5003 17.1307 13.1068C17.1946 13.2021 17.3002 13.2612 17.4156 13.2612H22.8656C23.1026 13.2612 23.2667 13.0278 23.1869 12.8073C21.5809 8.37025 17.357 5.44368 11.9446 5.44368ZM27.4771 5.88585C27.2888 5.88585 27.1361 6.03702 27.1361 6.22345H27.1357V27.7766C27.1357 27.963 27.2884 28.1142 27.4767 28.1142H32.3558C32.5441 28.1142 32.6967 27.963 32.6967 27.7766V21.1465H35.0648L38.9486 27.9427C39.0092 28.0489 39.1225 28.1142 39.2453 28.1142H45.0118C45.2815 28.1142 45.4444 27.8183 45.2983 27.5938L40.5915 20.3647C43.4745 19.1752 44.8133 16.6259 44.8133 13.4991C44.8133 9.08072 42.1701 5.88585 36.2321 5.88585H27.4771ZM39.1839 13.4991C39.1839 14.9606 38.5315 16.0484 36.3005 16.0484H32.6963V10.9839H36.3005C38.5315 10.9839 39.1839 12.0377 39.1839 13.4991ZM48.8259 5.88585H64.723C64.9113 5.88585 65.064 6.03702 65.064 6.22345V10.6467C65.064 10.8332 64.9113 10.9843 64.723 10.9843H54.046V14.6214H62.7323C62.9205 14.6214 63.0732 14.7726 63.0732 14.959V18.7026C63.0732 18.889 62.9205 19.0402 62.7323 19.0402H54.046V23.0169H64.723C64.9113 23.0169 65.064 23.1681 65.064 23.3545V27.7778C65.064 27.9642 64.9113 28.1154 64.723 28.1154H48.8259C48.6376 28.1154 48.485 27.9642 48.485 27.7778V6.22345C48.485 6.03702 48.6376 5.88585 48.8259 5.88585ZM85.162 5.88585H69.2649C69.0766 5.88585 68.9239 6.03702 68.9239 6.22345V27.7778C68.9239 27.9642 69.0766 28.1154 69.2649 28.1154H85.162C85.3503 28.1154 85.5029 27.9642 85.5029 27.7778V23.3545C85.5029 23.1681 85.3503 23.0169 85.162 23.0169H74.4849V19.0402H83.1712C83.3595 19.0402 83.5122 18.889 83.5122 18.7026V14.959C83.5122 14.7726 83.3595 14.6214 83.1712 14.6214H74.4849V10.9843H85.162C85.3503 10.9843 85.5029 10.8332 85.5029 10.6467V6.22345C85.5029 6.03702 85.3503 5.88585 85.162 5.88585ZM89.0003 15.0117C89.0003 9.26756 92.4326 5.66456 98.6112 5.66456C104.79 5.66456 108.222 9.26715 108.222 15.0117V27.9974C108.222 28.1839 108.069 28.335 107.881 28.335H103.002C102.814 28.335 102.661 28.1839 102.661 27.9974V14.8585C102.661 12.6136 100.836 10.7505 98.5694 10.7631C95.8522 10.7785 94.5609 12.3064 94.5609 15.0117V27.9974C94.5609 28.1839 94.4082 28.335 94.2199 28.335H89.3408C89.1525 28.335 88.9999 28.1839 88.9999 27.9974V15.0117H89.0003ZM117.38 5.88585H112.501C112.313 5.88585 112.16 6.03702 112.16 6.22345V27.777C112.16 27.9634 112.313 28.1146 112.501 28.1146H127.986C128.174 28.1146 128.327 27.9634 128.327 27.777V23.3537C128.327 23.1672 128.174 23.0161 127.986 23.0161H117.721V6.22345C117.721 6.03702 117.568 5.88585 117.38 5.88585ZM132.288 5.88585H137.167C137.356 5.88585 137.508 6.03702 137.508 6.22345V27.777C137.508 27.9634 137.356 28.1146 137.167 28.1146H132.288C132.1 28.1146 131.947 27.9634 131.947 27.777V6.22345C131.947 6.03702 132.1 5.88585 132.288 5.88585ZM173.596 5.88585H168.717C168.528 5.88585 168.376 6.03702 168.376 6.22345V27.777C168.376 27.9634 168.528 28.1146 168.717 28.1146H173.596C173.784 28.1146 173.937 27.9634 173.937 27.777V19.3794H182.346V27.777C182.346 27.9634 182.499 28.1146 182.687 28.1146H187.566C187.754 28.1146 187.907 27.9634 187.907 27.777V6.22345C187.907 6.03702 187.754 5.88585 187.566 5.88585H182.687C182.499 5.88585 182.346 6.03702 182.346 6.22345V14.2809H173.937V6.22345C173.937 6.03702 173.784 5.88585 173.596 5.88585ZM197.295 10.9839H191.527C191.338 10.9839 191.186 10.8328 191.186 10.6463V6.22305C191.186 6.03662 191.338 5.88544 191.527 5.88544H208.659C208.848 5.88544 209 6.03662 209 6.22305V10.6463C209 10.8328 208.848 10.9839 208.659 10.9839H202.856V27.7766C202.856 27.963 202.704 28.1142 202.515 28.1142H197.636C197.448 28.1142 197.295 27.963 197.295 27.7766V10.9839ZM158.923 28.0104H146.887C146.664 28.0104 146.484 28.1891 146.484 28.4096V29.6713C146.484 29.8917 146.664 30.0705 146.887 30.0705H158.923C159.146 30.0705 159.326 29.8917 159.326 29.6713V28.4096C159.326 28.1891 159.146 28.0104 158.923 28.0104ZM148.922 31.4675H156.888C157.007 31.4675 157.103 31.6158 157.103 31.799V33.1685C157.103 33.3517 157.007 33.5 156.888 33.5H148.922C148.803 33.5 148.707 33.3517 148.707 33.1685V31.799C148.707 31.6158 148.803 31.4675 148.922 31.4675Z" fill="url(#paint0_linear_2028_919)"/>
<defs>
<linearGradient id="paint0_linear_2028_919" x1="22.5" y1="25" x2="270" y2="46" gradientUnits="userSpaceOnUse">
<stop stop-color="#36CD4C"/>
<stop offset="1" stop-color="#C3DA38"/>
</linearGradient>
</defs>
</svg>
