<svg width="209" height="34" viewBox="0 0 209 34" fill="none" xmlns="http://www.w3.org/2000/svg">
<g clip-path="url(#clip0_36_333)">
<path d="M0 17C0 10.3383 4.94255 5.44368 11.9446 5.44368C17.357 5.44368 21.5809 8.37025 23.1869 12.8073C23.2667 13.0278 23.1026 13.2612 22.8656 13.2612H17.4156C17.3002 13.2612 17.1946 13.2021 17.1307 13.1068C16.0526 11.5003 14.2407 10.5422 11.9446 10.5422C8.13458 10.5422 5.62892 13.2612 5.62892 17C5.62892 20.7388 8.13458 23.4578 11.9446 23.4578C14.7593 23.4578 16.7501 22.336 17.7798 20.1608H10.9128C10.7245 20.1608 10.5719 20.0097 10.5719 19.8232V16.0796C10.5719 15.8932 10.7245 15.742 10.9128 15.742H23.5148C23.703 15.742 23.8557 15.8932 23.8557 16.0796V18.1555C23.3064 24.2056 18.5354 28.5559 11.9455 28.5559C4.94255 28.5563 0 23.6617 0 17Z" fill="#448F4F"/>
<path d="M27.1361 6.22345C27.1361 6.03702 27.2888 5.88585 27.4771 5.88585H36.2321C42.1701 5.88585 44.8132 9.08071 44.8132 13.4991C44.8132 16.6259 43.4745 19.1752 40.5914 20.3647L45.2983 27.5938C45.4444 27.8183 45.2815 28.1142 45.0118 28.1142H39.2453C39.1225 28.1142 39.0091 28.0489 38.9486 27.9427L35.0648 21.1465H32.6967V27.7766C32.6967 27.963 32.544 28.1142 32.3558 28.1142H27.4767C27.2884 28.1142 27.1357 27.963 27.1357 27.7766V6.22345H27.1361ZM36.3005 16.0484C38.5315 16.0484 39.1839 14.9606 39.1839 13.4991C39.1839 12.0377 38.5315 10.9839 36.3005 10.9839H32.6963V16.0484H36.3005Z" fill="#448F4F"/>
<path d="M48.8259 5.88585H64.723C64.9113 5.88585 65.064 6.03702 65.064 6.22345V10.6467C65.064 10.8332 64.9113 10.9843 64.723 10.9843H54.046V14.6214H62.7323C62.9205 14.6214 63.0732 14.7725 63.0732 14.959V18.7026C63.0732 18.889 62.9205 19.0402 62.7323 19.0402H54.046V23.0169H64.723C64.9113 23.0169 65.064 23.168 65.064 23.3545V27.7778C65.064 27.9642 64.9113 28.1154 64.723 28.1154H48.8259C48.6376 28.1154 48.485 27.9642 48.485 27.7778V6.22345C48.485 6.03702 48.6376 5.88585 48.8259 5.88585Z" fill="#448F4F"/>
<path d="M69.2649 5.88585H85.162C85.3503 5.88585 85.5029 6.03702 85.5029 6.22345V10.6467C85.5029 10.8332 85.3503 10.9843 85.162 10.9843H74.4849V14.6214H83.1712C83.3595 14.6214 83.5122 14.7725 83.5122 14.959V18.7026C83.5122 18.889 83.3595 19.0402 83.1712 19.0402H74.4849V23.0169H85.162C85.3503 23.0169 85.5029 23.168 85.5029 23.3545V27.7778C85.5029 27.9642 85.3503 28.1154 85.162 28.1154H69.2649C69.0766 28.1154 68.924 27.9642 68.924 27.7778V6.22345C68.924 6.03702 69.0766 5.88585 69.2649 5.88585Z" fill="#448F4F"/>
<path d="M89.0003 15.0117C89.0003 9.26755 92.4326 5.66456 98.6112 5.66456C104.79 5.66456 108.222 9.26714 108.222 15.0117V27.9974C108.222 28.1839 108.069 28.335 107.881 28.335H103.002C102.814 28.335 102.661 28.1839 102.661 27.9974V14.8585C102.661 12.6136 100.836 10.7505 98.5694 10.7631C95.8522 10.7785 94.5609 12.3064 94.5609 15.0117V27.9974C94.5609 28.1839 94.4082 28.335 94.2199 28.335H89.3408C89.1525 28.335 88.9999 28.1839 88.9999 27.9974V15.0117H89.0003Z" fill="#448F4F"/>
<path d="M112.501 5.88585H117.38C117.568 5.88585 117.721 6.03702 117.721 6.22345V23.0161H127.986C128.174 23.0161 128.327 23.1672 128.327 23.3537V27.777C128.327 27.9634 128.174 28.1146 127.986 28.1146H112.501C112.313 28.1146 112.16 27.9634 112.16 27.777V6.22345C112.16 6.03702 112.313 5.88585 112.501 5.88585H112.501Z" fill="#448F4F"/>
<path d="M132.288 5.88585H137.167C137.356 5.88585 137.508 6.03702 137.508 6.22345V27.777C137.508 27.9634 137.356 28.1146 137.167 28.1146H132.288C132.1 28.1146 131.947 27.9634 131.947 27.777V6.22345C131.947 6.03702 132.1 5.88585 132.288 5.88585Z" fill="#448F4F"/>
<path d="M168.717 5.88585H173.596C173.784 5.88585 173.937 6.03702 173.937 6.22345V14.2809H182.346V6.22345C182.346 6.03702 182.499 5.88585 182.687 5.88585H187.566C187.754 5.88585 187.907 6.03702 187.907 6.22345V27.777C187.907 27.9634 187.754 28.1146 187.566 28.1146H182.687C182.499 28.1146 182.346 27.9634 182.346 27.777V19.3794H173.937V27.777C173.937 27.9634 173.784 28.1146 173.596 28.1146H168.717C168.528 28.1146 168.376 27.9634 168.376 27.777V6.22345C168.376 6.03702 168.528 5.88585 168.717 5.88585Z" fill="#448F4F"/>
<path d="M197.296 10.9839H191.527C191.338 10.9839 191.186 10.8328 191.186 10.6463V6.22304C191.186 6.03661 191.338 5.88544 191.527 5.88544H208.659C208.848 5.88544 209 6.03661 209 6.22304V10.6463C209 10.8328 208.848 10.9839 208.659 10.9839H202.856V27.7766C202.856 27.963 202.704 28.1142 202.515 28.1142H197.636C197.448 28.1142 197.295 27.963 197.295 27.7766V10.9839H197.296Z" fill="#448F4F"/>
<path d="M164.197 12.6448L154.039 12.6679C154.039 10.802 153.603 8.87199 150.891 8.87199C149.418 8.87199 147.89 9.77335 147.89 11.8508C147.89 14.8629 151.003 14.7567 151.98 14.7567L151.998 22.2562C151.998 22.4426 152.151 22.5938 152.34 22.5934L153.745 22.5889C153.933 22.5885 154.086 22.4377 154.086 22.2509C154.082 20.7039 154.068 14.7345 154.068 14.7345L161.636 14.7178C161.241 16.1124 160.531 17.0742 159.534 18.3212C157.849 20.4283 157.328 22.644 157.171 23.9721L148.708 23.9912C148.456 22.7802 148.09 21.6109 147.617 20.5114C147.212 19.5695 146.646 18.6451 145.885 17.6857C142.359 13.2353 144.663 8.50197 144.766 8.29568L144.792 8.24096C144.885 8.03265 147.128 3.14287 152.923 3.1299C158.859 3.11653 161.036 7.97996 161.124 8.18503L161.532 9.07464C161.607 9.23918 161.8 9.31619 161.97 9.24931C162.126 9.18771 162.293 9.12165 162.339 9.1022L163.794 8.50197C163.968 8.43023 164.051 8.23245 163.978 8.0598C163.941 7.97064 163.898 7.87175 163.855 7.7765C163.718 7.47376 163.57 7.15966 163.57 7.15966C163.454 6.8869 160.635 0.482574 152.917 0.500001C145.581 0.516618 142.677 6.48202 142.376 7.14912C142.053 7.80204 139.345 13.6917 143.796 19.3085C144.411 20.0846 144.862 20.8154 145.174 21.5412C145.409 22.0892 145.614 22.6566 145.786 23.2402C146.036 24.0885 146.149 25.6399 146.188 26.307C146.198 26.4865 146.348 26.6259 146.53 26.6259H159.341C159.529 26.6259 159.682 26.476 159.684 26.29C159.685 26.1197 159.688 25.926 159.692 25.8154C159.691 25.7817 159.634 22.413 161.615 19.9549C162.817 18.4623 163.805 17.0981 164.305 14.9955C164.483 14.2501 164.555 14.0459 164.543 13.2803L164.539 12.9775C164.536 12.7927 164.384 12.6444 164.197 12.6448ZM149.955 11.7678C149.955 11.3203 150.257 10.9004 150.839 10.8684L150.853 10.8692L150.889 10.866C150.906 10.8668 151.311 10.8498 151.626 11.157C151.976 11.5003 151.908 12.1293 151.921 12.6412C151.309 12.6221 149.955 12.7745 149.955 11.7674V11.7678Z" fill="#448F4F"/>
<path d="M158.923 28.0104H146.887C146.664 28.0104 146.484 28.1891 146.484 28.4096V29.6713C146.484 29.8917 146.664 30.0705 146.887 30.0705H158.923C159.146 30.0705 159.326 29.8917 159.326 29.6713V28.4096C159.326 28.1891 159.146 28.0104 158.923 28.0104Z" fill="#448F4F"/>
<path d="M156.888 31.4675H148.922C148.803 31.4675 148.707 31.6158 148.707 31.799V33.1685C148.707 33.3517 148.803 33.5 148.922 33.5H156.888C157.007 33.5 157.103 33.3517 157.103 33.1685V31.799C157.103 31.6158 157.007 31.4675 156.888 31.4675Z" fill="#448F4F"/>
</g>
<defs>
<clipPath id="clip0_36_333">
<rect width="209" height="33" fill="white" transform="translate(0 0.5)"/>
</clipPath>
</defs>
</svg>
